<?xml version="1.0" encoding="utf-8"?>
<!-- Generator: Adobe Illustrator 22.0.0, SVG Export Plug-In . SVG Version: 6.00 Build 0)  -->
<svg version="1.1" id="Capa_1" xmlns="http://www.w3.org/2000/svg" xmlns:xlink="http://www.w3.org/1999/xlink" x="0px" y="0px"
	 viewBox="0 0 371.4 371.4" style="enable-background:new 0 0 371.4 371.4;" xml:space="preserve">
<style type="text/css">
	.st0{fill:#69A930;}
</style>
<path class="st0" d="M180,10.4c-97.2,0-176,78.8-176,176s78.8,176,176,176s176-78.8,176-176S277.2,10.4,180,10.4z M269.5,119.7
	l-121,145l-0.1,0.1c-3,3.4-7.3,5.5-11.9,6l-0.3,0h-0.8c-4.6,0-8.7-1.7-12-5l-48.3-48.3c-6.6-6.6-6.6-17.3,0-23.9c3.2-3.2,7.4-5,12-5
	c4.5,0,8.8,1.8,12,5l35.1,35.1l109.3-131c6.1-6.9,16.7-7.8,23.7-2l0.2,0.1C274.4,102,275.3,112.7,269.5,119.7z"/>
</svg>
