<?xml version="1.0" encoding="utf-8"?>
<!-- Generator: Adobe Illustrator 22.0.0, SVG Export Plug-In . SVG Version: 6.00 Build 0)  -->
<svg version="1.1" id="Capa_1" xmlns="http://www.w3.org/2000/svg" xmlns:xlink="http://www.w3.org/1999/xlink" x="0px" y="0px"
	 viewBox="0 0 371.4 371.4" style="enable-background:new 0 0 371.4 371.4;" xml:space="preserve">
<style type="text/css">
	.st0{fill:#69A930;}
</style>
<path class="st0" d="M180,10.4c-97.2,0-176,78.8-176,176s78.8,176,176,176s176-78.8,176-176S277.2,10.4,180,10.4z M141.7,248.1
	c-4.9,5.4-12.3,9.8-23.3,9.8h0c-9,0-19.4-2.9-30.7-8.6c-25.1-12.7-47.7-50.7-57-68c9.3-1.3,24.2-3,39.9-3c21,0,37.4,2.9,48.6,8.6
	c10.1,5.1,17.9,10.9,23.2,17c-1.1,10.7,1,21.7,6.1,32.5l-74.5-34.9L141.7,248.1z M247.9,245.2c-16,8.1-30.6,12.2-43.5,12.2
	c-17.1,0-28.2-7.3-35.3-15.8L271.4,176l-108.9,55.5c0,0,0-0.1-0.1-0.1c-14.6-28.8-0.2-56.9,39.6-76.9c15.8-8,38.7-12.1,68.1-12.1
	c24.1,0,46.8,2.9,59.2,4.7C317.7,169.1,284.9,226.5,247.9,245.2z"/>
</svg>
