<?xml version="1.0" encoding="utf-8"?>
<!-- Generator: Adobe Illustrator 22.0.0, SVG Export Plug-In . SVG Version: 6.00 Build 0)  -->
<svg version="1.1" id="Layer_1" xmlns="http://www.w3.org/2000/svg" xmlns:xlink="http://www.w3.org/1999/xlink" x="0px" y="0px"
	 viewBox="0 0 512 512" style="enable-background:new 0 0 512 512;" xml:space="preserve">
<style type="text/css">
	.st0{fill:#D4E1F4;}
	.st1{fill:#0635C9;}
	.st2{fill:#466FD3;}
</style>
<title>value customers users viewer</title>
<g>
	<g>
		<g>
			<path class="st0" d="M450,379.3l-21.8-21.6c-3.5-3.5-9.2-3.5-12.6,0.1c-3.5,3.5-3.5,9.2,0.1,12.6l21.8,21.6
				c1.7,1.7,4,2.6,6.3,2.6c2.3,0,4.6-0.9,6.3-2.6C453.5,388.4,453.5,382.8,450,379.3z"/>
		</g>
	</g>
	<g>
		<g>
			<path class="st0" d="M405.9,335.5c-3.5-3.5-9.2-3.5-12.6,0l0,0c-3.5,3.5-3.5,9.1,0,12.6c1.7,1.7,4,2.6,6.3,2.6
				c2.3,0,4.6-0.9,6.3-2.6C409.4,344.7,409.4,339,405.9,335.5z"/>
		</g>
	</g>
	<g>
		<g>
			<path class="st0" d="M360.7,352.4l86.8-86.8c13.1-13.1,13.1-34.5,0-47.7c-4.6-4.6-10.3-7.6-16.3-9c2-4.4,3.1-9.2,3.1-14.2
				c0-9-3.5-17.5-9.9-23.8c-5-5-11.3-8.2-18.1-9.4c3.8-11.7,1.1-25.1-8.2-34.4c-5.1-5.1-11.5-8.2-18.1-9.4c1.1-3.4,1.7-6.9,1.7-10.6
				c0-9-3.5-17.5-9.9-23.8c-6.4-6.4-14.8-9.9-23.8-9.9c-5.7,0-11.2,1.4-16.1,4.1l-0.9-0.9c-11.2-12.1-27.1-19-43.6-19h-70.2
				c-4.9,0-8.9,4-8.9,8.9v11.7c0,4.7,0.8,9.3,2.3,13.6c-4-1.7-8.4-2.6-12.9-2.6c-9,0-17.5,3.5-23.8,9.9c-9.3,9.3-12,22.7-8.2,34.4
				c-6.6,1.1-13,4.2-18.1,9.4c-6.4,6.4-9.9,14.8-9.9,23.8c0,3.6,0.6,7.2,1.7,10.6c-6.8,1.2-13.1,4.4-18.1,9.4
				c-10.3,10.3-12.5,25.6-6.7,38c-6.1,1.4-11.7,4.5-16.3,9c-13.1,13.1-13.1,34.5,0,47.7l17.8,17.8l-87.8,87.8
				c-3.5,3.5-3.5,9.2,0,12.6c1.7,1.7,4,2.6,6.3,2.6c2.3,0,4.6-0.9,6.3-2.6l88.7-88.7c5,2.9,10.7,4.4,16.7,4.4c9,0,17.5-3.5,23.8-9.9
				c6.9-6.9,10.2-16.1,9.8-25.2c0.5,0,0.9,0,1.4,0c8.6,0,17.3-3.3,23.8-9.9c6.4-6.4,9.9-14.8,9.9-23.8c0-0.5,0-0.9,0-1.4
				c0.4,0,0.9,0,1.3,0c8.6,0,17.3-3.3,23.8-9.9c6.4-6.4,9.9-14.8,9.9-23.8c0-0.5,0-0.9,0-1.4c0.4,0,0.9,0,1.3,0
				c8.6,0,17.3-3.3,23.8-9.9c12.3-12.3,13.1-32,2.2-45.2L336.9,96c3-3,7-4.6,11.2-4.6c4.2,0,8.2,1.6,11.2,4.6c3,3,4.6,7,4.6,11.2
				c0,4.2-1.6,8.2-4.6,11.2l-8.8,8.8l-31.8,31.8c-3.5,3.5-3.5,9.2,0,12.6c1.7,1.7,4,2.6,6.3,2.6c2.3,0,4.6-0.9,6.3-2.6l31.8-31.8
				c6.2-6.2,16.2-6.2,22.4,0c6.2,6.2,6.2,16.2,0,22.4l-8.8,8.8l-23,23c-3.5,3.5-3.5,9.2,0,12.6c1.7,1.7,4,2.6,6.3,2.6
				c2.3,0,4.6-0.9,6.3-2.6l23-23c3-3,7-4.6,11.2-4.6c4.2,0,8.2,1.6,11.2,4.6c3,3,4.6,7,4.6,11.2c0,4.2-1.6,8.2-4.6,11.2l-12,12
				l-11,11c-3.5,3.5-3.5,9.2,0,12.6c1.7,1.7,4,2.6,6.3,2.6c2.3,0,4.6-0.9,6.3-2.6l11-11c6.2-6.2,16.2-6.2,22.4,0
				c6.2,6.2,6.2,16.2,0,22.4L348,339.7c-21.8,21.8-50.7,34.4-81.5,35.5c-2.3,0.1-4.4,1-6,2.6l-80.1,80.4c-3.5,3.5-3.5,9.2,0,12.6
				c1.7,1.7,4,2.6,6.3,2.6c2.3,0,4.6-0.9,6.3-2.6l59-59.2c15,9.6,32.6,14.2,50.5,13l46.1,46.1c1.7,1.7,4,2.6,6.3,2.6
				c2.3,0,4.6-0.9,6.3-2.6c3.5-3.5,3.5-9.2,0-12.6l-49.1-49.1c-1.9-1.9-4.4-2.8-7.1-2.6l-2.8,0.2c-13.1,1.1-26-1.8-37.3-8.1l5.7-5.8
				C304.7,390.8,336.5,376.5,360.7,352.4z M157.6,293c-3,3-7,4.6-11.2,4.6c-4.2,0-8.2-1.6-11.2-4.6l-24.2-24.2
				c-6.2-6.2-6.2-16.2,0-22.4c3-3,7-4.6,11.2-4.6c4.2,0,8.2,1.6,11.2,4.6l24.2,24.2C163.8,276.8,163.8,286.8,157.6,293z M192.6,258
				c-6.2,6.2-16.2,6.2-22.4,0l-24.2-24.2l-12-12c-6.2-6.2-6.2-16.2,0-22.4c3-3,7-4.6,11.2-4.6c4.2,0,8.2,1.6,11.2,4.6l36.2,36.2
				c0,0,0,0,0,0c3,3,4.6,7,4.6,11.2S195.6,255,192.6,258z M227.6,222.9c-6.2,6.2-16.2,6.2-22.4,0L160.3,178c-3-3-4.6-7-4.6-11.2
				c0-4.2,1.6-8.2,4.6-11.2c3.1-3.1,7.1-4.6,11.2-4.6c4,0,8.1,1.5,11.2,4.6l20.5,20.5l24.5,24.5h0c3,3,4.6,7,4.6,11.2
				C232.2,216,230.6,220,227.6,222.9z M262.6,187.9c-6.2,6.2-16.2,6.2-22.4,0L195.3,143c0,0,0,0,0,0l-8.7-8.7
				c-6.2-6.2-6.2-16.2,0-22.4c3.1-3.1,7.1-4.6,11.2-4.6c4,0,8.1,1.5,11.2,4.6l53.7,53.7c3,3,4.6,7,4.6,11.2
				C267.3,181,265.6,184.9,262.6,187.9z M265,142.6l-24.6-24.6c2.8,0.6,5.6,0.9,8.6,0.9c0.1,0,0.1,0,0.2,0l24.5-0.1
				c4.9,0,8.9-4,8.9-9c0-4.9-4-8.9-8.9-8.9c0,0,0,0,0,0l-24.5,0.1c0,0-0.1,0-0.1,0c-6,0-11.7-2.3-16-6.6c-4.3-4.3-6.7-10-6.7-16.1
				v-2.8h61.3c11.5,0,22.6,4.8,30.5,13.3l0.4,0.4L265,142.6z"/>
		</g>
	</g>
</g>
<g>
	<g>
		<g>
			<path class="st1" d="M448.2,371.1l-21.8-21.6c-3.5-3.5-9.2-3.5-12.6,0.1c-3.5,3.5-3.5,9.2,0.1,12.6l21.8,21.6
				c1.7,1.7,4,2.6,6.3,2.6c2.3,0,4.6-0.9,6.3-2.6C451.7,380.2,451.7,374.5,448.2,371.1z"/>
		</g>
	</g>
	<g>
		<g>
			<path class="st1" d="M404.1,327.3c-3.5-3.5-9.2-3.5-12.6,0l0,0c-3.5,3.5-3.5,9.1,0,12.6c1.7,1.7,4,2.6,6.3,2.6
				c2.3,0,4.6-0.9,6.3-2.6C407.6,336.4,407.6,330.8,404.1,327.3z"/>
		</g>
	</g>
	<g>
		<g>
			<path class="st2" d="M358.8,344.1l86.8-86.8c13.1-13.1,13.1-34.5,0-47.7c-4.6-4.6-10.3-7.6-16.3-9c2-4.4,3.1-9.2,3.1-14.2
				c0-9-3.5-17.5-9.9-23.8c-5-5-11.3-8.2-18.1-9.4c3.8-11.7,1.1-25.1-8.2-34.4c-5.1-5.1-11.5-8.2-18.1-9.4c1.1-3.4,1.7-6.9,1.7-10.6
				c0-9-3.5-17.5-9.9-23.8c-6.4-6.4-14.8-9.9-23.8-9.9c-5.7,0-11.2,1.4-16.1,4.1l-0.9-0.9c-11.2-12.1-27.1-19-43.6-19h-70.2
				c-4.9,0-8.9,4-8.9,8.9v11.7c0,4.7,0.8,9.3,2.3,13.6c-4-1.7-8.4-2.6-12.9-2.6c-9,0-17.5,3.5-23.8,9.9c-9.3,9.3-12,22.7-8.2,34.4
				c-6.6,1.1-13,4.2-18.1,9.4c-6.4,6.4-9.9,14.8-9.9,23.8c0,3.6,0.6,7.2,1.7,10.6c-6.8,1.2-13.1,4.4-18.1,9.4
				c-10.3,10.3-12.5,25.6-6.7,38c-6.1,1.4-11.7,4.5-16.3,9c-13.1,13.1-13.1,34.5,0,47.7l17.8,17.8l-87.8,87.8
				c-3.5,3.5-3.5,9.2,0,12.6c1.7,1.7,4,2.6,6.3,2.6c2.3,0,4.6-0.9,6.3-2.6l88.7-88.7c5,2.9,10.7,4.4,16.7,4.4c9,0,17.5-3.5,23.8-9.9
				c6.9-6.9,10.2-16.1,9.8-25.2c0.5,0,0.9,0,1.4,0c8.6,0,17.3-3.3,23.8-9.9c6.4-6.4,9.9-14.8,9.9-23.8c0-0.5,0-0.9,0-1.4
				c0.4,0,0.9,0,1.3,0c8.6,0,17.3-3.3,23.8-9.9c6.4-6.4,9.9-14.8,9.9-23.8c0-0.5,0-0.9,0-1.4c0.4,0,0.9,0,1.3,0
				c8.6,0,17.3-3.3,23.8-9.9c12.3-12.3,13.1-32,2.2-45.2L335,87.8c3-3,7-4.6,11.2-4.6c4.2,0,8.2,1.6,11.2,4.6c3,3,4.6,7,4.6,11.2
				c0,4.2-1.6,8.2-4.6,11.2l-8.8,8.8l-31.8,31.8c-3.5,3.5-3.5,9.2,0,12.6c1.7,1.7,4,2.6,6.3,2.6c2.3,0,4.6-0.9,6.3-2.6l31.8-31.8
				c6.2-6.2,16.2-6.2,22.4,0c6.2,6.2,6.2,16.2,0,22.4l-8.8,8.8l-23,23c-3.5,3.5-3.5,9.2,0,12.6c1.7,1.7,4,2.6,6.3,2.6
				c2.3,0,4.6-0.9,6.3-2.6l23-23c3-3,7-4.6,11.2-4.6c4.2,0,8.2,1.6,11.2,4.6c3,3,4.6,7,4.6,11.2c0,4.2-1.6,8.2-4.6,11.2l-12,12
				l-11,11c-3.5,3.5-3.5,9.2,0,12.6c1.7,1.7,4,2.6,6.3,2.6c2.3,0,4.6-0.9,6.3-2.6l11-11c6.2-6.2,16.2-6.2,22.4,0
				c6.2,6.2,6.2,16.2,0,22.4l-86.8,86.8c-21.8,21.8-50.7,34.4-81.5,35.5c-2.3,0.1-4.4,1-6,2.6l-80.1,80.4c-3.5,3.5-3.5,9.2,0,12.6
				c1.7,1.7,4,2.6,6.3,2.6c2.3,0,4.6-0.9,6.3-2.6l59-59.2c15,9.6,32.6,14.2,50.5,13l46.1,46.1c1.7,1.7,4,2.6,6.3,2.6
				c2.3,0,4.6-0.9,6.3-2.6c3.5-3.5,3.5-9.2,0-12.6l-49.1-49.1c-1.9-1.9-4.4-2.8-7.1-2.6l-2.8,0.2c-13.1,1.1-26-1.8-37.3-8.1l5.7-5.8
				C302.9,382.6,334.7,368.3,358.8,344.1z M155.8,284.7c-3,3-7,4.6-11.2,4.6c-4.2,0-8.2-1.6-11.2-4.6l-24.2-24.2
				c-6.2-6.2-6.2-16.2,0-22.4c3-3,7-4.6,11.2-4.6c4.2,0,8.2,1.6,11.2,4.6l24.2,24.2C161.9,268.5,161.9,278.6,155.8,284.7z
				 M190.8,249.7c-6.2,6.2-16.2,6.2-22.4,0l-24.2-24.2l-12-12c-6.2-6.2-6.2-16.2,0-22.4c3-3,7-4.6,11.2-4.6c4.2,0,8.2,1.6,11.2,4.6
				l36.2,36.2c0,0,0,0,0,0c3,3,4.6,7,4.6,11.2S193.8,246.7,190.8,249.7z M225.8,214.7c-6.2,6.2-16.2,6.2-22.4,0l-44.9-44.9
				c-3-3-4.6-7-4.6-11.2c0-4.2,1.6-8.2,4.6-11.2c3.1-3.1,7.1-4.6,11.2-4.6c4,0,8.1,1.5,11.2,4.6l20.5,20.5l24.5,24.5h0
				c3,3,4.6,7,4.6,11.2C230.4,207.7,228.8,211.7,225.8,214.7z M260.8,179.7c-6.2,6.2-16.2,6.2-22.4,0l-44.9-44.9c0,0,0,0,0,0
				l-8.7-8.7c-6.2-6.2-6.2-16.2,0-22.4c3.1-3.1,7.1-4.6,11.2-4.6c4,0,8.1,1.5,11.2,4.6l53.7,53.7c3,3,4.6,7,4.6,11.2
				C265.4,172.7,263.8,176.7,260.8,179.7z M263.1,134.4l-24.6-24.6c2.8,0.6,5.6,0.9,8.6,0.9c0.1,0,0.1,0,0.2,0l24.5-0.1
				c4.9,0,8.9-4,8.9-9c0-4.9-4-8.9-8.9-8.9c0,0,0,0,0,0l-24.5,0.1c0,0-0.1,0-0.1,0c-6,0-11.7-2.3-16-6.6c-4.3-4.3-6.7-10-6.7-16.1
				v-2.8h61.3c11.5,0,22.6,4.8,30.5,13.3l0.4,0.4L263.1,134.4z"/>
		</g>
	</g>
</g>
<g>
	<g>
		<g>
			<path class="st1" d="M448.2,371.1l-21.8-21.6c-3.5-3.5-9.2-3.5-12.6,0.1c-3.5,3.5-3.5,9.2,0.1,12.6l21.8,21.6
				c1.7,1.7,4,2.6,6.3,2.6c2.3,0,4.6-0.9,6.3-2.6C451.7,380.2,451.7,374.5,448.2,371.1z"/>
		</g>
	</g>
	<g>
		<g>
			<path class="st1" d="M404.1,327.3c-3.5-3.5-9.2-3.5-12.6,0l0,0c-3.5,3.5-3.5,9.1,0,12.6c1.7,1.7,4,2.6,6.3,2.6
				c2.3,0,4.6-0.9,6.3-2.6C407.6,336.4,407.6,330.8,404.1,327.3z"/>
		</g>
	</g>
	<g>
		<g>
			<path class="st1" d="M359.4,450l-49.1-49.1c-1.9-1.9-4.4-2.8-7.1-2.6l-2.8,0.2c-12.5,1-24.9-1.6-35.8-7.3
				c-2.1,0.2-4.2,0.5-6.2,0.9c-2.9,3.8-5.2,8.1-6.6,12.3c14.6,8.9,31.6,13.1,48.8,12l46.1,46.1c1.7,1.7,4,2.6,6.3,2.6
				c2.3,0,4.6-0.9,6.3-2.6C362.9,459.2,362.9,453.5,359.4,450z"/>
		</g>
	</g>
</g>
</svg>
