<?xml version="1.0" encoding="utf-8"?>
<!-- Generator: Adobe Illustrator 23.0.4, SVG Export Plug-In . SVG Version: 6.00 Build 0)  -->
<svg version="1.1" id="Capa_1" xmlns="http://www.w3.org/2000/svg" xmlns:xlink="http://www.w3.org/1999/xlink" x="0px" y="0px"
	 viewBox="0 0 113.4 28.9" style="enable-background:new 0 0 113.4 28.9;" xml:space="preserve">
<style type="text/css">
	.st0{fill:#FFFFFF;}
	.st1{fill:#F1D527;}
	.st2{fill:#BE2B76;}
</style>
<g>
	<path class="st0" d="M10.1,12.9c-0.1,0.8-0.2,1.5-0.2,2.8v6.7c0,1.2,0,1.9,0.2,2.8H6.9c0.1-1,0.2-1.7,0.2-2.8v-6.8
		c0-1.2,0-1.9-0.2-2.8H10.1z"/>
	<path class="st0" d="M12.8,25.3c0.1-0.9,0.2-1.6,0.2-2.8v-6.8c0-1.2,0-1.9-0.2-2.8h2.9v1.1c0,0.3,0,0.4,0,0.9
		c1.3-1.7,2.5-2.3,4.4-2.3c1.7,0,2.9,0.5,3.7,1.6c0.5,0.7,0.7,1.6,0.7,3v5.2c0,1.2,0,2,0.2,2.8h-3.1c0.1-1,0.2-1.7,0.2-2.8v-4.8
		c0-0.9-0.1-1.5-0.4-1.9c-0.3-0.6-1-0.9-1.8-0.9c-1.6,0-2.8,1.1-3.8,3.2v4.4c0,1.1,0,1.9,0.2,2.8H12.8z"/>
	<path class="st0" d="M30.4,8.1c-0.1,0.8-0.2,1.6-0.2,2.8v7.1l3.2-3.2c1-0.9,1.4-1.4,1.7-1.9h4C38,14,38,14,37,14.9L34,17.8l3.6,5
		c1.5,2,1.5,2,2,2.5h-3.8c-0.3-0.7-0.5-1.1-1.4-2.4L32,19.5l-1.8,1.7v1.4c0,1.4,0,1.9,0.2,2.8h-3c0.1-0.9,0.2-1.6,0.2-2.8V11
		c0-1.3,0-2-0.2-2.8H30.4z"/>
	<path class="st0" d="M59,25.3c-0.1-0.5-0.3-1.2-0.5-2.1l-1.7-5.1c0-0.1-0.2-0.6-0.4-1.4C56.3,17.1,56,18,56,18.2l-1.7,5.1
		c-0.2,0.7-0.5,1.6-0.6,2.1h-2.5c-0.1-0.6-0.2-0.9-0.6-2.1l-2.4-7.7c-0.3-1-0.6-1.9-0.9-2.7h3.2c0,0.6,0.2,1.7,0.5,2.6l1.2,4.2
		c0.1,0.3,0.2,0.9,0.4,1.7c0-0.2,0.4-1.5,0.5-1.7l1.6-4.7c0.2-0.6,0.5-1.6,0.5-2.1h2.3c0.1,0.4,0.3,1.4,0.5,2.1l1.6,4.9
		c0.1,0.2,0.2,0.6,0.3,1.1c0.1,0.3,0.1,0.3,0.1,0.5c0-0.2,0-0.2,0.1-0.5c0.1-0.3,0.2-1,0.3-1.1l1.2-4.3c0.3-0.9,0.4-1.9,0.5-2.6h3.2
		c-0.3,0.7-0.3,0.9-0.9,2.7L62,23.3c-0.3,1-0.4,1.4-0.5,2.1H59z"/>
	<path class="st0" d="M66.4,19.1c0-4,2.5-6.6,6.4-6.6c3.9,0,6.4,2.5,6.4,6.5s-2.5,6.6-6.4,6.6C68.9,25.7,66.4,23.2,66.4,19.1z
		 M69.1,19.1c0,2.7,1.4,4.3,3.6,4.3c2.2,0,3.6-1.6,3.6-4.3c0-2.8-1.3-4.4-3.6-4.4C70.5,14.8,69.1,16.4,69.1,19.1z"/>
	<path class="st0" d="M89.6,15.6c-0.9-0.3-1.4-0.3-1.9-0.3c-1.1,0-1.9,0.3-2.5,1.1c-0.5,0.6-0.8,1.1-0.9,2.2v4c0,1.2,0,1.8,0.2,2.8
		h-3.1c0.1-1.1,0.2-1.7,0.2-2.8v-6.8c0-1.3,0-1.9-0.2-2.8h2.9v2c0.8-1.5,2.1-2.3,4.1-2.3c0.5,0,1,0.1,2,0.2L89.6,15.6z"/>
	<path class="st0" d="M95.1,8.1C95,9,94.9,9.7,94.9,11v11.5c0,1.1,0,1.9,0.2,2.8H92c0.1-0.9,0.2-1.6,0.2-2.8V10.9c0-1.3,0-2-0.2-2.8
		H95.1z"/>
	<path class="st0" d="M107.5,24.2c0-0.3,0-0.5,0-0.8c-1.1,1.6-2.3,2.1-4.4,2.1c-1.5,0-2.7-0.3-3.6-1.1c-1.4-1.1-2.2-3.1-2.2-5.4
		c0-3.9,2.3-6.5,5.8-6.5c1.3,0,2.4,0.3,3.3,1c0.4,0.3,0.6,0.6,1.1,1.2c0-0.3,0-0.3,0-0.7c0-0.2,0-0.6,0-0.9V11c0-1.3,0-2-0.2-2.9h3
		c-0.1,1-0.2,1.8-0.2,2.9v11.4c0,1.3,0,2,0.2,2.9h-2.9V24.2z M103.7,23.3c1.1,0,2.2-0.5,2.9-1.4c0.5-0.7,0.8-1.8,0.8-2.9
		c0-1.1-0.4-2.2-1-2.9c-0.7-0.7-1.8-1.2-2.8-1.2c-2.1,0-3.4,1.6-3.4,4.2S101.5,23.3,103.7,23.3z"/>
</g>
<path class="st1" d="M7.7,5.6c-0.2,1-0.2,1.9-0.2,1.9c0,0,0,0.1,0,0.1c0,0,0.1,0.1,0.1,0.1c0,0,0.9,0,1.9-0.2
	c1.4-0.2,2.3-0.5,2.7-0.9c1-1,1.1-2.6,0.1-3.7c-1-1-2.6-1.1-3.7-0.1C8.2,3.3,7.9,4.2,7.7,5.6z"/>
<path d="M5.4,7.2c0.7,0.1,1.3,0.1,1.3,0.1c0,0,0.1,0,0.1,0c0,0,0-0.1,0-0.1c0,0,0-0.6-0.1-1.3C6.6,5,6.4,4.3,6.1,4
	C5.4,3.3,4.3,3.3,3.6,4c-0.7,0.7-0.7,1.8,0,2.5C3.8,6.8,4.4,7.1,5.4,7.2z"/>
<path class="st2" d="M8.8,8.4C8,8.3,7.4,8.3,7.4,8.3c0,0-0.1,0-0.1,0c0,0,0,0.1,0,0.1c0,0,0,0.7,0.1,1.4c0.1,1,0.3,1.7,0.6,2
	c0.7,0.7,1.9,0.8,2.6,0c0.7-0.7,0.8-1.9,0-2.6C10.4,8.8,9.7,8.6,8.8,8.4z"/>
</svg>
