<?xml version="1.0" encoding="utf-8"?>
<!-- Generator: Adobe Illustrator 22.0.0, SVG Export Plug-In . SVG Version: 6.00 Build 0)  -->
<svg version="1.1" id="Layer_1" xmlns="http://www.w3.org/2000/svg" xmlns:xlink="http://www.w3.org/1999/xlink" x="0px" y="0px"
	 viewBox="0 0 229 93" style="enable-background:new 0 0 229 93;" xml:space="preserve">
<style type="text/css">
	.st0{fill:#FFFFFF;}
	.st1{fill:#F1D527;}
	.st2{fill:#BE2B76;}
	.st3{font-family:'Lato-Medium';}
	.st4{font-size:47.4961px;}
	.st5{letter-spacing:-3;}
	.st6{font-size:20px;}
	.st7{letter-spacing:-1;}
	.st8{font-size:13px;}
</style>
<g>
	<g>
		<path class="st0" d="M86.3,14.4c-0.1,1-0.3,2-0.3,3.7v8.7c0,1.6,0,2.5,0.3,3.7h-4.2c0.1-1.3,0.3-2.2,0.3-3.7v-8.9
			c0-1.6,0-2.5-0.3-3.7h4.2V14.4z"/>
		<path class="st0" d="M89.9,30.6c0.1-1.2,0.3-2.1,0.3-3.7v-8.9c0-1.6,0-2.5-0.3-3.7h3.8v1.4c0,0.4,0,0.5,0,1.2c1.7-2.2,3.3-3,5.7-3
			c2.2,0,3.8,0.7,4.8,2.1c0.7,0.9,0.9,2.1,0.9,3.9v6.8c0,1.6,0,2.6,0.3,3.7h-4c0.1-1.3,0.3-2.2,0.3-3.7v-6.3c0-1.2-0.1-2-0.5-2.5
			c-0.4-0.8-1.3-1.2-2.3-1.2c-2.1,0-3.7,1.4-5,4.2v5.7c0,1.4,0,2.5,0.3,3.7h-4.2V30.6z"/>
		<path class="st0" d="M112.8,8.2c-0.1,1-0.3,2.1-0.3,3.7v9.3l4.2-4.2c1.3-1.2,1.8-1.8,2.2-2.5h5.2c-1.4,1.4-1.4,1.4-2.7,2.6
			l-3.9,3.8l4.7,6.5c2,2.6,2,2.6,2.6,3.3h-5c-0.4-0.9-0.7-1.4-1.8-3.1l-3.1-4.4l-2.3,2.2v1.8c0,1.8,0,2.5,0.3,3.7h-3.9
			c0.1-1.2,0.3-2.1,0.3-3.7V11.9c0-1.7,0-2.6-0.3-3.7h3.9V8.2z"/>
		<path class="st0" d="M150.1,30.6c-0.1-0.7-0.4-1.6-0.7-2.7l-2.2-6.7c0-0.1-0.3-0.8-0.5-1.8c-0.1,0.5-0.5,1.7-0.5,2L144,28
			c-0.3,0.9-0.7,2.1-0.8,2.7h-3.3c-0.1-0.8-0.3-1.2-0.8-2.7l-3.1-10c-0.4-1.3-0.8-2.5-1.2-3.5h4.2c0,0.8,0.3,2.2,0.7,3.4l1.6,5.5
			c0.1,0.4,0.3,1.2,0.5,2.2c0-0.3,0.5-2,0.7-2.2l2.1-6.1c0.3-0.8,0.7-2.1,0.7-2.7h3c0.1,0.5,0.4,1.8,0.7,2.7l2.1,6.4
			c0.1,0.3,0.3,0.8,0.4,1.4c0.1,0.4,0.1,0.4,0.1,0.7c0-0.3,0-0.3,0.1-0.7c0.1-0.4,0.3-1.3,0.4-1.4l1.6-5.6c0.4-1.2,0.5-2.5,0.7-3.4
			h4.2c-0.4,0.9-0.4,1.2-1.2,3.5L154,28c-0.4,1.3-0.5,1.8-0.7,2.7h-3.3V30.6z"/>
		<path class="st0" d="M159.8,22.5c0-5.2,3.3-8.6,8.3-8.6c5.1,0,8.3,3.3,8.3,8.5s-3.3,8.6-8.3,8.6C163,31.1,159.8,27.8,159.8,22.5z
			 M163.3,22.5c0,3.5,1.8,5.6,4.7,5.6c2.9,0,4.7-2.1,4.7-5.6c0-3.7-1.7-5.7-4.7-5.7C165.1,16.9,163.3,19,163.3,22.5z"/>
		<path class="st0" d="M190,17.9c-1.2-0.4-1.8-0.4-2.5-0.4c-1.4,0-2.5,0.4-3.3,1.4c-0.7,0.8-1,1.4-1.2,2.9v5.2c0,1.6,0,2.3,0.3,3.7
			h-4c0.1-1.4,0.3-2.2,0.3-3.7v-8.9c0-1.7,0-2.5-0.3-3.7h3.8v2.6c1-2,2.7-3,5.3-3c0.7,0,1.3,0.1,2.6,0.3L190,17.9z"/>
		<path class="st0" d="M197.2,8.2c-0.1,1.2-0.3,2.1-0.3,3.8v15c0,1.4,0,2.5,0.3,3.7h-4c0.1-1.2,0.3-2.1,0.3-3.7V11.8
			c0-1.7,0-2.6-0.3-3.7C193.1,8.2,197.2,8.2,197.2,8.2z"/>
		<path class="st0" d="M213.4,29.1c0-0.4,0-0.7,0-1c-1.4,2.1-3,2.7-5.7,2.7c-2,0-3.5-0.4-4.7-1.4c-1.8-1.4-2.9-4-2.9-7
			c0-5.1,3-8.5,7.6-8.5c1.7,0,3.1,0.4,4.3,1.3c0.5,0.4,0.8,0.8,1.4,1.6c0-0.4,0-0.4,0-0.9c0-0.3,0-0.8,0-1.2v-2.7
			c0-1.7,0-2.6-0.3-3.8h3.9c-0.1,1.3-0.3,2.3-0.3,3.8v14.9c0,1.7,0,2.6,0.3,3.8h-3.8v-1.4H213.4z M208.4,28c1.4,0,2.9-0.7,3.8-1.8
			c0.7-0.9,1-2.3,1-3.8c0-1.4-0.5-2.9-1.3-3.8c-0.9-0.9-2.3-1.6-3.7-1.6c-2.7,0-4.4,2.1-4.4,5.5S205.5,28,208.4,28z"/>
	</g>
	<path class="st1" d="M83.2,4.9C83,6.2,83,7.4,83,7.4v0.1l0.1,0.1c0,0,1.2,0,2.5-0.3c1.8-0.3,3-0.7,3.5-1.2c1.3-1.3,1.4-3.4,0.1-4.8
		c-1.3-1.3-3.4-1.4-4.8-0.1C83.9,1.9,83.5,3.1,83.2,4.9z"/>
	<path d="M80.2,7c0.9,0.1,1.7,0.1,1.7,0.1H82V7c0,0,0-0.8-0.1-1.7c-0.1-1.2-0.4-2.1-0.8-2.5c-0.9-0.9-2.3-0.9-3.3,0
		c-0.9,0.9-0.9,2.3,0,3.3C78.1,6.5,78.9,6.8,80.2,7z"/>
	<path class="st2" d="M84.6,8.5c-1-0.1-1.8-0.1-1.8-0.1h-0.1v0.1c0,0,0,0.9,0.1,1.8c0.1,1.3,0.4,2.2,0.8,2.6c0.9,0.9,2.5,1,3.4,0
		c0.9-0.9,1-2.5,0-3.4C86.7,9.1,85.8,8.8,84.6,8.5z"/>
</g>
<text transform="matrix(1 0 0 1 22.6655 45.4141)" class="st0 st3 st4 st5">12</text>
<text transform="matrix(1 0 0 1 11.332 39.5005)" class="st0 st3 st6 st7">#</text>
<text transform="matrix(1 0 0 1 82.6906 48.333)" class="st0 st3 st8">North America Top 20</text>
</svg>
