<?xml version="1.0" encoding="utf-8"?>
<!-- Generator: Adobe Illustrator 22.0.0, SVG Export Plug-In . SVG Version: 6.00 Build 0)  -->
<svg version="1.1" id="Layer_1" xmlns="http://www.w3.org/2000/svg" xmlns:xlink="http://www.w3.org/1999/xlink" x="0px" y="0px"
	 viewBox="0 0 229 93" style="enable-background:new 0 0 229 93;" xml:space="preserve">
<style type="text/css">
	.st0{fill:#FFFFFF;}
	.st1{font-family:'Lato-Light';}
	.st2{font-size:18.1341px;}
</style>
<path class="st0" d="M7,16.4c0.3,0.3,0.7,0.6,0.9,1c0.2,0.3,0.3,0.6,0.4,1l0.7,2.5c1.1,0.4,2.2,0.8,3.4,1.2c0.3,0.1,0.7,0.2,0.8,0.5
	c0.2,0.3,0.1,0.7,0.3,0.9c0.2,0.3,0.6,0.3,0.9,0.4c1.5,0.4,1.6,2.5,1.9,4c0.1,0.4,0.2,0.7,0.4,1c0.2,0.3,0.5,0.5,0.8,0.6
	c2.1,1.1,4.6,1.5,6.9,1.1c-0.2,2.1-2.1,3.8-2,5.9c0,0.6,0.2,1.1,0.1,1.7c-0.1,0.4-0.3,0.7-0.4,1.1c-0.5,1.4,0.2,3.1-0.5,4.5
	c-0.8,1.5-2.8,1.7-4.3,2.5c-0.3,0.2-0.7,0.5-0.6,0.9c0,0.2,0.2,0.4,0.3,0.5c1.3,1.4,3.5,2,4.6,3.6c0.6,0.8,0.9,1.8,1.7,2.4
	c0.3,0.2,0.7,0.4,0.9,0.7c0.5,0.7-0.2,1.7,0.2,2.4c0.1,0.2,0.3,0.4,0.5,0.5c-3.4,1.2-5.8,4.4-6,8.1h18.3c-0.2-3.7-2.6-6.8-5.9-8.1
	c0.2,0,0.4-0.1,0.5-0.3c0.3-0.3,0.2-0.9,0.1-1.3c-0.5-1.8-0.3-4.1,1.2-5.2c0.1,1.8,0.3,3.6,0.5,5.4c0.1,0.6,0.1,1.2,0.5,1.6
	c0.4,0.4,1.2,0.5,1.5-0.1c0.2-0.3,0-0.7-0.1-1c-0.4-1.6-0.1-3.5,0.9-4.8c0.2-0.2,0.4-0.4,0.6-0.4c0.3,0,0.5,0.2,0.7,0.3
	c0.6,0.3,1.4-0.4,1.4-1.1c0-0.7-0.4-1.3-0.9-1.8c-0.5-0.5-1-0.9-1.3-1.6c-0.7-1.4,0-3.3-0.6-4.8c-0.2-0.5-0.6-1-0.9-1.5
	c-1-1.6-1.4-3.7-1-5.5c0.2-1,0.7-2,0.5-3.1c-0.2-1.2-1.2-2.2-1-3.4c0.3-1.4,2-1.8,3.4-1.9c0-0.4,0.1-0.9,0.1-1.3
	c0.3-0.7,1-1,1.7-1.2c0.7-0.2,1.4-0.4,1.9-1c0.4-0.6,0.2-1.6-0.5-1.7c0.5,0,1,0,1.4-0.2c0.4-0.2,0.8-0.7,0.6-1.2
	c-0.1-0.5-0.8-0.7-1.3-0.9c-1.8-0.5-3.6-0.9-5.4-0.7c-1.8,0.2-3.7,1.3-4.2,3.1c-0.1,0.3-0.2,0.6-0.4,0.8c-0.5,0.3-1.1-0.4-1-1
	c0.1-0.6,0.6-1,0.9-1.6c0.6-1.1,0.3-2.6-0.7-3.4c-1-0.8-2.6-0.6-3.4,0.3c-0.9,0.9-0.9,2.5-0.1,3.5c0.4,0.5,1,1.2,0.5,1.6
	c-1.5-0.3-2.7-1.7-3.3-3.1c-0.6-1.5-0.8-3.1-0.9-4.6c-0.1-0.9-0.1-2,0.3-2.8c0.5-0.9,1.6-1.4,2.5-1.9C27,8.9,28,8.1,28,7
	c0-0.2-0.1-0.5-0.3-0.6c-0.2-0.1-0.4,0-0.6,0.1c-1.4,0.7-2.6,2.1-4.1,1.7c-0.4-0.7,0.4-1.4,1.1-1.8c0.7-0.4,1.5-1,1.2-1.8
	c-1.2,0.4-2.5,0.9-3.2,2c-0.7,1.1-0.5,2.8,0.7,3.3c-1.1,2.6-2.2,5.7-0.7,8c0.4,0.6,0.9,1.1,1.2,1.7c0.9,1.9-0.7,2.2-1.9,1.2
	c-1-0.8-1.7-2.1-2.3-3.3c-1.2-2-2.8-3.8-4.7-5.3c-1.2-0.9-2.5-1.7-3.5-2.8c-1.7-1.7-2.6-4.1-4-6C6.2,2.5,5.5,1.7,4.6,1.3
	C3.2,0.6,1.5,0.8,0.3,1.8C1.5,7.1,2.9,12.8,7,16.4z"/>
<text transform="matrix(1 0 0 1 54.7676 28.2163)"><tspan x="0" y="0" class="st0 st1 st2">Lider en titas y</tspan><tspan x="0" y="20.1" class="st0 st1 st2">y materiales en el</tspan><tspan x="0" y="40.2" class="st0 st1 st2">mercado mexicano</tspan></text>
</svg>
