<?xml version="1.0" encoding="utf-8"?>
<!-- Generator: Adobe Illustrator 23.0.4, SVG Export Plug-In . SVG Version: 6.00 Build 0)  -->
<svg version="1.1" id="Capa_1" xmlns="http://www.w3.org/2000/svg" xmlns:xlink="http://www.w3.org/1999/xlink" x="0px" y="0px"
	 viewBox="0 0 371.4 371.4" style="enable-background:new 0 0 371.4 371.4;" xml:space="preserve">
<style type="text/css">
	.st0{fill:#00539F;}
</style>
<g>
	<path class="st0" d="M183,204.3c28.4,0,46-30.9,31.9-55.3L183,93.1l-31.9,55.9C137.1,173.2,154.5,204.3,183,204.3z"/>
	<path class="st0" d="M185.7,9.7c-97.2,0-176,78.8-176,176s78.8,176,176,176s176-78.8,176-176S282.9,9.7,185.7,9.7z M129.8,136.7
		L183,43.5l53.3,93.2c23.5,40.6-6,92.1-53.3,92.1C135.6,228.8,106.4,177.3,129.8,136.7z M301.4,273c-1.8,6.7-5.8,12.2-9.6,17.9
		c-0.4,0.6-0.6,1.2-0.8,1.7c-9.3,8.4-21.2,13-33.7,13c-14.7,0-27.8-6.5-36.9-16.7c-9,10.2-22.2,16.7-36.9,16.7
		c-14.7,0-27.8-6.5-36.9-16.7c-9,10.2-22.2,16.7-36.9,16.7c-13.7,0-26.1-5.7-35.1-14.8c-3.2-4.4-6.2-9.1-8.4-14.1
		c-2.8-6.3-3.2-13.6-4.8-20.3h23.7c0,13.5,11,24.6,24.6,24.6s24.6-11,24.6-24.6h24.6c0,13.5,11,24.6,24.6,24.6
		c13.5,0,24.6-11,24.6-24.6h24.6c0,13.5,11,24.6,24.6,24.6c13.8,0,25.4-11.3,25.4-24.6h21.6C303.4,262,302.9,267.6,301.4,273z"/>
</g>
</svg>
