<?xml version="1.0" encoding="utf-8"?>
<!-- Generator: Adobe Illustrator 22.0.0, SVG Export Plug-In . SVG Version: 6.00 Build 0)  -->
<svg version="1.1" id="Layer_1" xmlns="http://www.w3.org/2000/svg" xmlns:xlink="http://www.w3.org/1999/xlink" x="0px" y="0px"
	 viewBox="0 0 512 512" style="enable-background:new 0 0 512 512;" xml:space="preserve">
<style type="text/css">
	.st0{fill:#D4E1F4;}
	.st1{fill:#466FD3;}
	.st2{fill:#0635C9;}
</style>
<title>value customers users viewer</title>
<g>
	<g>
		<path class="st0" d="M119.2,59.4c-31,0-56.2,25.2-56.2,56.2s25.2,56.2,56.2,56.2c31,0,56.2-25.2,56.2-56.2S150.2,59.4,119.2,59.4z
			 M119.2,154.3c-21.3,0-38.7-17.3-38.7-38.7c0-21.3,17.3-38.7,38.7-38.7c21.3,0,38.7,17.3,38.7,38.7
			C157.8,137,140.5,154.3,119.2,154.3z"/>
	</g>
</g>
<g>
	<g>
		<path class="st0" d="M399.8,59.4c-31,0-56.2,25.2-56.2,56.2c0,31,25.2,56.2,56.2,56.2c31,0,56.2-25.2,56.2-56.2
			S430.8,59.4,399.8,59.4z M399.8,154.3c-21.3,0-38.7-17.3-38.7-38.7c0-21.3,17.3-38.7,38.7-38.7s38.7,17.3,38.7,38.7
			C438.5,137,421.1,154.3,399.8,154.3z"/>
	</g>
</g>
<g>
	<g>
		<path class="st0" d="M493.2,270c4.9,0,8.8-3.9,8.8-8.8v-39c0-31.1-24-38.3-33.2-38.5c-0.1,0-0.1,0-0.2,0c-0.2,0-133,0-133.2,0
			c-3.2,0.1-14.1,1.2-21.9,12.5l-54.1,78.1l-54.1-78.1c-7.8-11.3-18.7-12.4-21.9-12.5c-0.1,0-0.1,0-0.2,0c-0.1,0-133,0-133.1,0
			c-9.2,0.2-33.2,7.4-33.2,38.5v123.6c0,12.6,10.2,22.8,22.8,22.8c9,0,10.5,0.2,13.8-0.6v36.9c0,4.9,3.9,8.8,8.8,8.8h35.1
			c4.9,0,8.8-3.9,8.8-8.8c0-4.9-3.9-8.8-8.8-8.8H71.2v-50.3V230.4c0-4.9-3.9-8.8-8.8-8.8c-4.9,0-8.8,3.9-8.8,8.8v115.4
			c0,2.9-2.4,5.3-5.3,5.3h-8.5c-2.9,0-5.3-2.4-5.3-5.3V222.2c0-14.1,7.3-20.3,15.9-20.9h132.7c0.9,0,4.7,0.5,7.8,4.9l57.8,83.6
			c-0.4,0.6-11.2,16.2-11.6,16.8l-54-78.1c-4.9-7.1-16-3.6-16,5v162.7h-28.6c-4.9,0-8.8,3.9-8.8,8.8c0,4.9,3.9,8.8,8.8,8.8h37.4
			c4.9,0,8.8-3.9,8.8-8.8V261.6l51.9,75c10.9,15.7,34.9,15.7,45.7,0l51.9-75v143.3c0,4.9,3.9,8.8,8.8,8.8h113.5
			c4.9,0,8.8-3.9,8.8-8.8V368c3.3,0.8,4.8,0.6,13.8,0.6c12.6,0,22.8-10.2,22.8-22.8v-43.6c0-4.9-3.9-8.8-8.8-8.8
			c-4.9,0-8.8,3.9-8.8,8.8v43.6c0,2.9-2.4,5.3-5.3,5.3h-8.5c-2.9,0-5.3-2.4-5.3-5.3V230.4c0-4.9-3.9-8.8-8.8-8.8s-8.8,3.9-8.8,8.8
			c0,8.6,0,157.2,0,165.7h-96V233.5c0-8.6-11.1-12.1-16-5c-72.9,105.4-68.5,100.6-73.2,101.9c-8.6,2.4-15.5-7.3-10.5-14.6L328,206.2
			c3.1-4.4,6.9-4.9,7.8-4.9c143.2,0,135-1.1,141,2.9c5.1,3.3,7.6,9.4,7.6,18v39C484.4,266,488.4,270,493.2,270z"/>
	</g>
</g>
<g>
	<g>
		<path class="st1" d="M111.2,51.4c-31,0-56.2,25.2-56.2,56.2s25.2,56.2,56.2,56.2c31,0,56.2-25.2,56.2-56.2S142.2,51.4,111.2,51.4z
			 M111.2,146.3c-21.3,0-38.7-17.3-38.7-38.7c0-21.3,17.3-38.7,38.7-38.7c21.3,0,38.7,17.3,38.7,38.7
			C149.8,129,132.5,146.3,111.2,146.3z"/>
	</g>
</g>
<g>
	<g>
		<path class="st1" d="M391.8,51.4c-31,0-56.2,25.2-56.2,56.2c0,31,25.2,56.2,56.2,56.2c31,0,56.2-25.2,56.2-56.2
			S422.8,51.4,391.8,51.4z M391.8,146.3c-21.3,0-38.7-17.3-38.7-38.7c0-21.3,17.3-38.7,38.7-38.7c21.3,0,38.7,17.3,38.7,38.7
			C430.5,129,413.1,146.3,391.8,146.3z"/>
	</g>
</g>
<g>
	<g>
		<path class="st2" d="M485.2,262c4.9,0,8.8-3.9,8.8-8.8v-39c0-31.1-24-38.3-33.2-38.5c-0.1,0-0.1,0-0.2,0c-0.2,0-133,0-133.2,0
			c-3.2,0.1-14.1,1.2-21.9,12.5l-54.1,78.1l-54.1-78.1c-7.8-11.3-18.7-12.4-21.9-12.5c-0.1,0-0.1,0-0.2,0c-0.1,0-133,0-133.1,0
			C32.9,175.9,9,183.1,9,214.2v123.6c0,12.6,10.2,22.8,22.8,22.8c9,0,10.5,0.2,13.8-0.6v36.9c0,4.9,3.9,8.8,8.8,8.8h35.1
			c4.9,0,8.8-3.9,8.8-8.8c0-4.9-3.9-8.8-8.8-8.8H63.2v-50.3V222.4c0-4.9-3.9-8.8-8.8-8.8c-4.9,0-8.8,3.9-8.8,8.8v115.4
			c0,2.9-2.4,5.3-5.3,5.3h-8.5c-2.9,0-5.3-2.4-5.3-5.3V214.2c0-14.1,7.3-20.3,15.9-20.9h132.7c0.9,0,4.7,0.5,7.8,4.9l57.8,83.6
			c-0.4,0.6-11.2,16.2-11.6,16.8l-54-78.1c-4.9-7.1-16-3.6-16,5v162.7h-28.6c-4.9,0-8.8,3.9-8.8,8.8c0,4.9,3.9,8.8,8.8,8.8h37.4
			c4.9,0,8.8-3.9,8.8-8.8V253.6l51.9,75c10.9,15.7,34.9,15.7,45.7,0l51.9-75v143.3c0,4.9,3.9,8.8,8.8,8.8h113.5
			c4.9,0,8.8-3.9,8.8-8.8V360c3.3,0.8,4.8,0.6,13.8,0.6c12.6,0,22.8-10.2,22.8-22.8v-43.6c0-4.9-3.9-8.8-8.8-8.8
			c-4.9,0-8.8,3.9-8.8,8.8v43.6c0,2.9-2.4,5.3-5.3,5.3h-8.5c-2.9,0-5.3-2.4-5.3-5.3V222.4c0-4.9-3.9-8.8-8.8-8.8s-8.8,3.9-8.8,8.8
			c0,8.6,0,157.2,0,165.7h-96V225.5c0-8.6-11.1-12.1-16-5c-72.9,105.4-68.5,100.6-73.2,101.9c-8.6,2.4-15.5-7.3-10.5-14.6L320,198.2
			c3.1-4.4,6.9-4.9,7.8-4.9c143.2,0,135-1.1,141,2.9c5.1,3.3,7.6,9.4,7.6,18v39C476.4,258,480.4,262,485.2,262z"/>
	</g>
</g>
</svg>
