<?xml version="1.0" encoding="utf-8"?>
<!-- Generator: Adobe Illustrator 23.0.4, SVG Export Plug-In . SVG Version: 6.00 Build 0)  -->
<svg version="1.1" id="Capa_1" xmlns="http://www.w3.org/2000/svg" xmlns:xlink="http://www.w3.org/1999/xlink" x="0px" y="0px"
	 viewBox="0 0 371.4 371.4" style="enable-background:new 0 0 371.4 371.4;" xml:space="preserve">
<style type="text/css">
	.st0{fill:#00539F;}
</style>
<path class="st0" d="M185.7,9.7c-97.2,0-176,78.8-176,176s78.8,176,176,176s176-78.8,176-176S282.9,9.7,185.7,9.7z M251.9,218.3
	L221,229.7c-25,9.2-44.7,28.9-53.9,53.9l-11.4,30.9c-0.4,1.2-1.5,1.9-2.8,1.9c-1.2,0-2.3-0.8-2.8-1.9l-11.4-30.9
	c-9.2-25-28.9-44.7-53.9-53.9l-30.9-11.4c-1.2-0.4-1.9-1.5-1.9-2.8c0-1.2,0.8-2.3,1.9-2.8L85,201.4c25-9.2,44.7-28.9,53.9-53.9
	l11.4-30.9c0.4-1.2,1.5-1.9,2.8-1.9c1.2,0,2.3,0.8,2.8,1.9l11.4,30.9c9.2,25,28.9,44.7,53.9,53.9l30.9,11.4c1.2,0.4,1.9,1.5,1.9,2.8
	C253.9,216.8,253.1,217.9,251.9,218.3z M297.6,127.9l-12,4.4c-9.7,3.6-17.3,11.2-20.9,20.9l-4.4,12c-0.2,0.4-0.6,0.7-1.1,0.7
	s-0.9-0.3-1.1-0.7l-4.4-12c-3.6-9.7-11.2-17.3-20.9-20.9l-12-4.4c-0.4-0.2-0.7-0.6-0.7-1.1s0.3-0.9,0.7-1.1l12-4.4
	c9.7-3.6,17.3-11.2,20.9-20.9l4.4-12c0.2-0.4,0.6-0.7,1.1-0.7s0.9,0.3,1.1,0.7l4.4,12c3.6,9.7,11.2,17.3,20.9,20.9l12,4.4
	c0.5,0.2,0.7,0.6,0.7,1.1S298,127.7,297.6,127.9z"/>
</svg>
