<?xml version="1.0" encoding="utf-8"?>
<!-- Generator: Adobe Illustrator 22.0.0, SVG Export Plug-In . SVG Version: 6.00 Build 0)  -->
<svg version="1.1" id="Layer_1" xmlns="http://www.w3.org/2000/svg" xmlns:xlink="http://www.w3.org/1999/xlink" x="0px" y="0px"
	 viewBox="0 0 512 512" style="enable-background:new 0 0 512 512;" xml:space="preserve">
<style type="text/css">
	.st0{fill:#D4E1F4;}
	.st1{fill:#0635C9;}
	.st2{fill:#466FD3;}
</style>
<path class="st0" d="M256.1,31c-25.1,0-45.5,20.4-45.5,45.5v19.8c0.1,25.2,20.6,45.4,45.8,45.3c25-0.1,45.2-20.3,45.3-45.3V76.5
	C301.6,51.4,281.2,31,256.1,31z M289.6,96.3c-0.1,18.5-15.2,33.5-33.7,33.4c-18.4-0.1-33.3-15-33.4-33.4V76.5
	c0.1-18.5,15.2-33.5,33.7-33.4c18.4,0.1,33.3,15,33.4,33.4V96.3z"/>
<path class="st0" d="M331.1,96.9v17.3c0,22.4,18.2,40.6,40.6,40.6s40.6-18.2,40.6-40.6V96.9c0-22.4-18.2-40.6-40.6-40.6
	S331.1,74.4,331.1,96.9z M400.4,96.9v17.3c0,15.8-12.8,28.6-28.6,28.6s-28.6-12.8-28.6-28.6c0,0,0,0,0,0V96.9
	c0-15.8,12.8-28.6,28.6-28.6S400.4,81.1,400.4,96.9C400.4,96.9,400.4,96.9,400.4,96.9z"/>
<path class="st0" d="M399.9,155.9c-3.2-0.2-4.8,1.8-6.2,3.4c-9.6,11.8-27,13.5-38.7,3.9c-1.8-1.4-3.3-3.1-4.7-4.9
	c-1.2-1.6-3-2.5-5-2.4c-7.8,0.2-15.4,2.4-22.1,6.4c-8.9-10.3-21.6-16.6-35.2-17.5c-3.1-0.1-4.7,1.8-6.2,3.6
	c-11.3,13.8-31.7,15.8-45.5,4.5c-2.1-1.7-3.9-3.6-5.5-5.8c-1.2-1.6-3-2.5-5-2.4c-13.2,0.3-25.7,5.8-34.8,15.2
	c-0.8,0.8-1.5,1.6-2.2,2.4c-6.2-3.8-13.2-6-20.5-6.4c-3.2-0.2-4.8,1.8-6.2,3.4c-9.6,11.8-27,13.5-38.7,3.9c-1.8-1.4-3.3-3.1-4.7-4.9
	c-1.2-1.6-3-2.5-5-2.4C89.4,156.4,70,176.3,70,200.7v38.9c0,3.3,2.7,6,6,6h100.7v13.8c0,3.3,2.7,6,6,6h146.8c3.3,0,6-2.7,6-6l0,0
	v-13.8H436c3.3,0,6-2.7,6-6v-38.9C442,177,423.6,157.4,399.9,155.9z M82,233.7v-32.9c0.1-16.7,12.6-30.8,29.3-32.7
	c14.4,16.4,39.4,18,55.8,3.5c1.2-1.1,2.3-2.2,3.4-3.4c4.1,0.6,8.1,2,11.7,4.1c-3.6,7.1-5.5,14.9-5.5,22.9v38.5L82,233.7z
	 M323.5,253.4H188.7v-58.3c0.1-19.7,15-36.2,34.6-38.3c16,18.5,44,20.6,62.5,4.6c1.6-1.4,3.1-2.8,4.4-4.4
	c19,2.6,33.2,18.9,33.3,38.1V253.4z M430,233.7h-94.5v-38.5c0-8-1.9-15.9-5.5-23c3.9-2.3,8.3-3.7,12.8-4.2
	c14.4,16.4,39.4,18,55.8,3.5c1.2-1.1,2.3-2.2,3.4-3.4c16.1,2.4,28.1,16.3,28.1,32.6V233.7z"/>
<path class="st0" d="M140.3,154.8c22.4,0,40.6-18.2,40.6-40.6V96.9c0-22.4-18.2-40.6-40.6-40.6S99.6,74.4,99.6,96.9v17.3
	C99.7,136.6,117.8,154.8,140.3,154.8z M111.6,96.9c0-15.8,12.8-28.6,28.6-28.6s28.6,12.8,28.6,28.6c0,0,0,0,0,0v17.3
	c0,15.8-12.8,28.6-28.6,28.6s-28.6-12.8-28.6-28.6c0,0,0,0,0,0L111.6,96.9z"/>
<title>value customers users viewer</title>
<polygon class="st0" points="48.7,320.2 95.4,320.2 92.1,309.6 38.1,309.6 58.5,477.1 67.8,477.1 "/>
<path class="st0" d="M274.1,356.5c-1.2,0.2-2.3,0-3.4-0.5c-3.2,1.4-4.7,5.1-3.3,8.4c1.1,2.6,3.9,4.2,6.7,3.8
	c13.6-1.9,27.3-2.5,40.9-1.9l46.7,2.1c0.1,0,0.2,0,0.3,0c3.5,0,6.4-2.8,6.4-6.4c0,0,0,0,0,0c0-1,0-1.9-0.1-2.8l6.3-3.3l67.7-36.5
	c7.2-3.9,15.9-4.3,23.4-0.9l8.4-5.8c-8.3-8.6-21.3-10.6-31.8-4.9l-67.7,36.5l-6.3,3.3c0.1,0.9,0.1,1.9,0.1,2.8
	c0,3.5-2.8,6.4-6.4,6.4c0,0,0,0,0,0c-0.1,0-0.2,0-0.3,0l-46.7-2.1C301.4,354,287.7,354.7,274.1,356.5z"/>
<path class="st0" d="M128.6,338.2l13.4-12c25.3-19,59.2-22.3,87.7-8.4l5.6,2.7c9.7,4.7,20.3,7.1,31.1,7.1h54.8
	c11.7,0,22.6,6,28.9,15.9l4.8,0.2c-3.2-16.1-17.3-27.7-33.7-27.7h-54.8c-10.8,0-21.4-2.4-31.1-7.1l-5.6-2.7
	c-28.5-13.9-62.4-10.6-87.7,8.4l-13.4,12c-6.4,5.7-14.1,10-22.3,12.5l3.2,10.6C116.6,347.1,123,343.2,128.6,338.2z"/>
<path class="st1" d="M435.1,298.2l-2.4,1.3c-9.6-11.6-26.2-16.1-38.8-9.7c0,0-0.1,0-0.1,0.1l-5.6,3c-13.7-11.6-33.2-13.3-48.7-4.4
	l-30.2,16.4h-40.1c-8.7,0-17.3-2-25.1-5.7l-5.5-2.7c-32-15.6-70.1-11.9-98.6,9.6c-0.1,0.1-0.3,0.2-0.4,0.3l-13.3,11.9
	c-5,4.5-11,7.8-17.4,9.7l-7.6-24.8c-0.8-2.5-3.1-4.2-5.7-4.2H31.1c-3.3,0-6,2.7-6,6c0,0.2,0,0.5,0,0.7l21.5,176.2
	c0.4,3,2.9,5.3,6,5.3h96.7c3.3,0,6-2.7,6-6c0-0.6-0.1-1.2-0.3-1.7l-12.7-41.7l39.6-25c5.3-2.9,11.5-3.7,17.4-2.2
	c0.1,0,0.2,0.1,0.4,0.1l80.5,14.8c21.9,3.9,44.4,0.7,64.3-9.1c0.3-0.1,0.5-0.3,0.7-0.4l139.2-95.6c2.6-1.8,3.4-5.3,1.7-8
	C475.5,294.6,453.1,288.5,435.1,298.2z M399.4,300.4c7.3-3.7,16.5-0.7,22.4,5L369,333.9l-3.1,1.6c-1.7-4.7-4.1-9.2-7.2-13.1
	L399.4,300.4z M345.3,298.9c0,0,0.1-0.1,0.1-0.1c9.6-5.6,21.5-5.5,31,0.3l-26.8,14.4c-5.1-3.7-11-6.4-17.1-7.7L345.3,298.9z
	 M57.9,475l-20-164.2h53.2L141.2,475H57.9z M338.7,405.6c-17.5,8.5-37.3,11.3-56.5,7.8l-80.3-14.8c-8.8-2.2-18.2-0.9-26.1,3.5
	c-0.1,0.1-0.2,0.1-0.3,0.2l-36.9,23.3l-26.3-86.3c8.1-2.4,15.6-6.6,21.9-12.3l13.1-11.7c24.8-18.7,58-21.9,85.9-8.3l5.5,2.7
	c9.5,4.6,19.8,6.9,30.3,6.9h53.5c16.2,0,30.2,11.6,33.2,27.5l-38.8-1.8c-14.1-0.6-28.2,0-42.2,2c-3.3,0.5-5.5,3.5-5.1,6.8
	c0.5,3.2,3.5,5.5,6.7,5.1c13.3-1.8,26.7-2.5,40-1.8l45.7,2.1c0.1,0,0.2,0,0.3,0c3.3,0,6-2.7,6-6c0-1,0-1.9-0.1-2.9l6.3-3.3
	l66.1-35.7c10.4-5.7,23.4-3.6,31.5,5.1L338.7,405.6z"/>
<path class="st1" d="M77,450.2c0,10.4,8.5,18.9,18.9,18.9s18.9-8.5,18.9-18.9s-8.5-18.9-18.9-18.9C85.4,431.3,77,439.8,77,450.2z
	 M95.9,443.3c3.8,0,6.9,3.1,6.9,6.9c0,3.8-3.1,6.9-6.9,6.9c-3.8,0-6.9-3.1-6.9-6.9C89,446.4,92.1,443.3,95.9,443.3L95.9,443.3z"/>
<path class="st2" d="M256.1,26c-25.1,0-45.5,20.4-45.5,45.5v19.8c0.1,25.2,20.6,45.4,45.8,45.3c25-0.1,45.2-20.3,45.3-45.3V71.5
	C301.6,46.4,281.2,26,256.1,26z M289.6,91.3c-0.1,18.5-15.2,33.5-33.7,33.4c-18.4-0.1-33.3-15-33.4-33.4V71.5
	c0.1-18.5,15.2-33.5,33.7-33.4c18.4,0.1,33.3,15,33.4,33.4V91.3z"/>
<path class="st2" d="M331.1,91.9v17.3c0,22.4,18.2,40.6,40.6,40.6s40.6-18.2,40.6-40.6V91.9c0-22.4-18.2-40.6-40.6-40.6
	S331.1,69.4,331.1,91.9z M400.4,91.9v17.3c0,15.8-12.8,28.6-28.6,28.6s-28.6-12.8-28.6-28.6c0,0,0,0,0,0V91.9
	c0-15.8,12.8-28.6,28.6-28.6S400.4,76.1,400.4,91.9C400.4,91.9,400.4,91.9,400.4,91.9z"/>
<path class="st2" d="M399.9,150.9c-3.2-0.2-4.8,1.8-6.2,3.4c-9.6,11.8-27,13.5-38.7,3.9c-1.8-1.4-3.3-3.1-4.7-4.9
	c-1.2-1.6-3-2.5-5-2.4c-7.8,0.2-15.4,2.4-22.1,6.4c-8.9-10.3-21.6-16.6-35.2-17.5c-3.1-0.1-4.7,1.8-6.2,3.6
	c-11.3,13.8-31.7,15.8-45.5,4.5c-2.1-1.7-3.9-3.6-5.5-5.8c-1.2-1.6-3-2.5-5-2.4c-13.2,0.3-25.7,5.8-34.8,15.2
	c-0.8,0.8-1.5,1.6-2.2,2.4c-6.2-3.8-13.2-6-20.5-6.4c-3.2-0.2-4.8,1.8-6.2,3.4c-9.6,11.8-27,13.5-38.7,3.9c-1.8-1.4-3.3-3.1-4.7-4.9
	c-1.2-1.6-3-2.5-5-2.4C89.4,151.4,70,171.3,70,195.7v38.9c0,3.3,2.7,6,6,6h100.7v13.8c0,3.3,2.7,6,6,6h146.8c3.3,0,6-2.7,6-6l0,0
	v-13.8H436c3.3,0,6-2.7,6-6v-38.9C442,172,423.6,152.4,399.9,150.9z M82,228.7v-32.9c0.1-16.7,12.6-30.8,29.3-32.7
	c14.4,16.4,39.4,18,55.8,3.5c1.2-1.1,2.3-2.2,3.4-3.4c4.1,0.6,8.1,2,11.7,4.1c-3.6,7.1-5.5,14.9-5.5,22.9v38.5L82,228.7z
	 M323.5,248.4H188.7v-58.3c0.1-19.7,15-36.2,34.6-38.3c16,18.5,44,20.6,62.5,4.6c1.6-1.4,3.1-2.8,4.4-4.4
	c19,2.6,33.2,18.9,33.3,38.1V248.4z M430,228.7h-94.5v-38.5c0-8-1.9-15.9-5.5-23c3.9-2.3,8.3-3.7,12.8-4.2
	c14.4,16.4,39.4,18,55.8,3.5c1.2-1.1,2.3-2.2,3.4-3.4c16.1,2.4,28.1,16.3,28.1,32.6V228.7z"/>
<path class="st2" d="M140.3,149.8c22.4,0,40.6-18.2,40.6-40.6V91.9c0-22.4-18.2-40.6-40.6-40.6S99.6,69.4,99.6,91.9v17.3
	C99.7,131.6,117.8,149.8,140.3,149.8z M111.6,91.9c0-15.8,12.8-28.6,28.6-28.6s28.6,12.8,28.6,28.6c0,0,0,0,0,0v17.3
	c0,15.8-12.8,28.6-28.6,28.6s-28.6-12.8-28.6-28.6c0,0,0,0,0,0L111.6,91.9z"/>
</svg>
